<?xml version="1.0" encoding="utf-8"?>
<!-- Generator: Adobe Illustrator 25.0.1, SVG Export Plug-In . SVG Version: 6.00 Build 0)  -->
<svg version="1.1" id="Layer_1" xmlns="http://www.w3.org/2000/svg" xmlns:xlink="http://www.w3.org/1999/xlink" x="0px" y="0px"
	 viewBox="0 0 256 253.6" style="enable-background:new 0 0 256 253.6;" xml:space="preserve">
<style type="text/css">
	.st0{fill:#6BAA3F;}
</style>
<g>
	<path class="st0" d="M47.5,175.9c-5.6-15.9-11.2-31.7-16.8-47.6c5.1,7,9,14.6,12.7,22.2c9.5,19.4,14.1,39.9,15.5,61.4
		c0.4,6.9,1.2,13.7,1.8,20.5c0.1,0.9,0.5,2.1-0.4,2.7c-1.1,0.7-2-0.4-2.9-1c-16.8-11.4-30.3-25.7-40.3-43.4
		c-3.9-6.9-7.2-14.1-9.3-22.1c9.7,13.1,22.1,22.6,37.7,27.9c-4.6-4.4-9.2-8.7-13.9-13.1c-4.6-4.3-9.3-8.6-13.6-13.3
		c10.9,7,20.7,15.4,31.3,23c-1.6-5.2-4.7-9.6-8.3-13.5c-8.8-9.6-19.8-15.7-31.8-20.2c-3.9-1.4-5.7-3.5-6.4-7.6
		c-7-42.4,3.5-79.6,32.6-111.4c2.9-3.1,5.5-7.2,9.3-8.3c4-1.2,7.7,2.7,11.5,4.3C71,43,86.4,47.3,102.8,45.9
		c5.5-0.5,10.8-1.5,15.8-4.1c-15.9-2.6-31.9-4.3-47.7-7.3c0-0.3,0.1-0.6,0.1-0.9c15.5,0.8,30.9,1.6,46.7,2.5
		c-2.7-2.8-11.7-6.3-22.1-8.5c-7.7-1.6-15.5-2.6-23.3-2c-7.9,0.6-15.7,1.9-23.7,4.1c0.1-2,1.5-2.5,2.4-3.2
		C70.3,11.7,92.2,3.2,116.5,1c33-3,62.8,5.5,89,25.5c28.4,21.7,44.8,50.7,49.5,86.2c1.5,11.2,1.3,22.4-0.4,33.6
		c-0.4,2.5-1.3,3.5-3.8,3.8c-18.9,2.6-36.2,9.2-50.6,22.2c-5,4.5-9.2,9.6-13,15c-0.9,1.3-1.7,2.6-3,3.6c-12.8,8.9-24.3,19.4-34.8,31
		c-0.5,0.5-0.9,1.2-2,1.1c-0.8-1.8,0.2-3.5,0.5-5.1c3.5-16.9,7.2-33.7,10.7-50.6c0.6-2.9,2.6-4.5,4.2-6.6c0.7-0.9,1.7-1.9,1.1-3.2
		c-0.6-1.2-1.9-1.4-3.1-1.4c-7.7,0-15.5-0.1-23.2,0c-3.8,0.1-4.9,2-3,5.2c1.3,2.2,1.1,4,0.3,6.2c-8.4,24-16.9,48.1-25.9,71.9
		c-0.5,1.4-0.9,2.8-2.2,3.7c-1.3,0.9-2.4,2.6-4.4,1.3c-1.8-1.2-2.5-2.6-1.9-4.9c2.3-10.4,4.5-20.8,6.7-31.1
		c3.8-17.8,7.6-35.6,11.4-53.5c0.7-3.3,1.7-6.2,4.4-8.4c0.8-0.6,1.5-1.6,2.1-2.5c1.9-2.8,1-4.4-2.5-4.6c-2.3-0.1-4.6,0-6.9-0.1
		c-6.5-0.1-13-0.3-19.5-0.5c-2.1-0.1-4.3,0-5.4,2.1c-1.2,2.1,0.4,3.7,1.6,5.2c1.1,1.4,1.4,2.7,0.8,4.3C85.1,173,77,195.6,68.8,218.2
		c-0.2,0.5-0.3,1.2-1.3,1.4c-1.2-3.1-1.4-6.5-2-9.8c-2.1-11.8-5-23.3-9.1-34.6c-1.4-3.7-0.8-7.6-1-11.4c-1.1-19.8-9-36.6-21.8-51.3
		c-3-3.5-6.4-6.5-9.7-9.8c-0.7-0.6-1.3-1.8-2.3-1.4c-1.1,0.3-0.9,1.6-1,2.5c-2,13-0.3,25.5,4.4,37.6C30,154.1,37.8,165.6,47.5,175.9
		z M156.2,52.5c0.3,0.2,0.6,0.4,1,0.5c-8.1,14.1-16.2,28.2-24.5,42.5c-1.2-1.3-0.5-2.2-0.3-3.1c3.8-15.7,7.6-31.4,11.3-47.1
		c0.4-1.6,1-2.9,2-4.2c1.6-1.9,1-3.4-1.3-3.4c-5.1-0.2-10.1-0.1-15.2,0.1c-1.9,0.1-2.9,1.5-1.9,3.4c1.2,2.2,0.6,4.1-0.1,6.2
		c-7.6,22.9-15.2,45.8-22.8,68.7c-1,3-1.9,5.8-4.6,8c-2.2,1.8-1.3,4.9,1.4,5.1c7.7,0.4,15.4,0.7,23.1-0.2c2.1-0.3,3.9-1.9,2.7-4.1
		c-1.6-3.1-0.5-5.6,0.6-8.2c1.7-4.1,3.2-8.3,5-12.4c5.8-13.2,11.2-26.5,22.1-36.9c7.5-7.2,11.3-16.7,11.1-27.5
		c-0.1-2.7-0.9-3.3-3.2-1.7c-6.1,4.3-11.3,9.4-14.9,16c-2.9,5.3-4.4,11-4,17.3C147.9,65,152.1,58.8,156.2,52.5z M152.8,147.4
		L152.8,147.4c3,0,6,0.2,9,0c2.5-0.2,4.4-1.2,2.9-4.2c-0.6-1.3-0.3-2.6,0-3.9c4.5-20.2,9-40.5,13.5-60.7c0.5-2.1,0.9-4.2,2.5-5.9
		c1.5-1.6,0.8-3-1.4-3.1c-3.7-0.1-7.5-0.1-11.2,0.1c-1.9,0.1-3.3,1.2-2.7,3.3c0.6,2.2,0,4-0.7,6c-6,18.1-12,36.2-18,54.3
		c-1.2,3.7-2.1,7.6-5,10.7c-1.8,1.8-0.9,3.4,1.7,3.5C146.6,147.5,149.7,147.4,152.8,147.4z M65.4,171.8c12-7.2,22.6-40.2,18.5-56.9
		c-14.8,15.1-22.6,32.7-22.3,53.8c5-11.4,10-22.8,15-34.2c0.3,0.1,0.6,0.2,0.8,0.3C74.2,147.3,69.3,159.1,65.4,171.8z M188.4,146.2
		c0.3,0,0.7,0,1,0.1c-2.4,12.5-4.8,25.1-7.3,37.6c11.9-17.4,16.3-36.4,12.3-57.4c-13.2,14.8-23.2,42.7-17,57.4
		C181,171.2,184.4,158.6,188.4,146.2z M94.6,68.5c-0.2-0.3-0.4-0.6-0.7-0.9c8-6.4,15.9-12.8,23.9-19.2C101.1,53,88.3,62.7,79.2,78.6
		c17.4-4.8,32.8-11,41.6-27.3C112.1,57,103.4,62.7,94.6,68.5z M184.4,84.2c6.7,10.6,16.2,16.9,28.6,19.8
		c-5-10.9-19.1-23.6-27.6-23.1c5.8,5.3,12.3,9.4,17.2,15.4C196.5,92.2,190.5,88.2,184.4,84.2z M221.9,71.3c-8.7-4-30.3-3.9-36,2.8
		c7.7-0.7,15.3-1.3,22.9-2c-3.3,2.2-7,2.3-10.5,3.1c-3.6,0.8-7.2,1.3-11.6,2.1C197.8,80.5,213.1,77.7,221.9,71.3z M123.7,28
		c-3-10.9-16.3-22.9-21.6-22.9c2.9,11.8,13.7,25.2,20,25.6c-4.4-5.6-8.7-11.2-13-16.7c0.3-0.2,0.5-0.5,0.8-0.7
		C114.4,18.2,119,23.1,123.7,28z M145.5,91.5c7.4-3.3,11.5-9.1,13.9-16.4c-7.8,3.4-14.4,8-17.6,16.1c0.3,0.3,0.7,0.7,1,1
		c3.6-3.8,7.1-7.6,10.7-11.4c-0.9,2.2-2.3,3.9-3.7,5.6C148.3,88.1,146.9,89.8,145.5,91.5z"/>
	<path class="st0" d="M230.6,167.6c-13.3,9.6-26.7,19.3-40,28.9c0.2,0.3,0.4,0.6,0.6,0.9c24.6-6.8,46.5-17.6,60.3-40.7
		c1.3,0.7,0.7,1.6,0.5,2.3c-4,15.6-10.6,30-19.9,43.1c-1.5,2.1-3.1,2.8-5.8,2.2c-11.6-2.3-23.2-3-34.8-0.2
		c-4.9,1.2-9.6,3.1-14.3,6.4c13.7-0.4,26.7-2.3,39.9-1c-12.5,1.8-25,3.7-37.5,5.5c13.3,4.2,26.6,3.9,40.7,0.2
		c-2.6,3.9-5.4,6.2-8,8.6c-17.4,15.2-37.5,24.9-60.1,29.4c-2.8,0.6-4.5,0.2-5.1-3c-0.5-2.4-2.1-4.3-3.7-6.1
		c-1.2-1.3-1.2-2.5-0.1-3.8c15-17.9,28.6-37.2,47.8-51.2c11.9-8.7,24.9-15.6,38.2-22c0.3-0.1,0.7-0.1,1-0.2
		C230.4,167.3,230.5,167.4,230.6,167.6z"/>
	<path class="st0" d="M97.4,160.2c1.3,11.1-14.3,60.2-23.3,73.2C72.6,226.9,92.5,167.2,97.4,160.2z"/>
	<path class="st0" d="M120.7,233.5c5-18.9,12.3-36.9,20.8-54.4C138.1,198.6,133.3,217.5,120.7,233.5z"/>
	<path class="st0" d="M123.3,75.6c-2.8,14.6-6,29-13.4,42C113,103.1,117.9,89.2,123.3,75.6z"/>
	<path class="st0" d="M165.3,95.7c-2.8,14.3-5.5,28.6-13.8,41C154.8,122.6,159.7,109,165.3,95.7z"/>
	<path class="st0" d="M59.9,223.9"/>
</g>
</svg>
